<?xml version="1.0" encoding="utf-8"?>
<!-- Generator: Adobe Illustrator 16.0.0, SVG Export Plug-In . SVG Version: 6.00 Build 0)  -->
<!DOCTYPE svg PUBLIC "-//W3C//DTD SVG 1.1//EN" "http://www.w3.org/Graphics/SVG/1.1/DTD/svg11.dtd">
<svg version="1.1" id="Layer_1" xmlns="http://www.w3.org/2000/svg" xmlns:xlink="http://www.w3.org/1999/xlink" x="0px" y="0px"
	 width="180px" height="20px" viewBox="0 0 180 20" enable-background="new 0 0 180 20" xml:space="preserve">
<g>
	<path fill="#FDFDFE" d="M9.072,5.312c0.211-0.158,0.44-0.347,0.688-0.569s0.553-0.455,0.918-0.698s0.73-0.46,1.096-0.65
		s0.664-0.322,0.897-0.397s0.571-0.127,1.015-0.156c0.394,0.143,0.632,0.331,0.714,0.564s0.113,0.481,0.091,0.747
		s-0.099,0.475-0.231,0.628s-0.308,0.358-0.526,0.612s-0.512,0.498-0.881,0.73s-0.816,0.455-1.343,0.666s-0.884,0.51-1.074,0.897
		S10.068,8.504,9.899,8.98s-0.306,0.97-0.414,1.482s-0.213,0.975-0.317,1.386S8.97,12.728,8.884,13.25
		c-0.086,0.523-0.097,1.048-0.032,1.574s0.228,1.019,0.489,1.477c0.261,0.459,0.544,0.816,0.849,1.074s0.673,0.396,1.106,0.414
		s0.883-0.034,1.348-0.156c0.465-0.121,0.875-0.351,1.23-0.688c0.354-0.336,0.46-0.671,0.317-1.004s-0.138-0.589,0.016-0.768
		c0.154-0.18,0.365-0.176,0.634,0.01c0.269,0.187,0.403,0.57,0.403,1.15c-0.351,0.673-0.668,1.12-0.951,1.342
		c-0.283,0.223-0.6,0.403-0.951,0.543s-0.884,0.285-1.601,0.436l-0.913-0.012c-0.408-0.121-0.752-0.281-1.031-0.478
		s-0.537-0.432-0.773-0.704c-0.236-0.271-0.449-0.551-0.639-0.838c-0.19-0.286-0.33-0.707-0.419-1.262s-0.115-1.174-0.075-1.858
		s0.165-1.485,0.376-2.406c0.211-0.92,0.491-1.705,0.838-2.353S9.531,7.63,9.341,7.348S9.231,6.835,9.583,6.66
		s0.639-0.324,0.865-0.446s0.457-0.218,0.693-0.29s0.516-0.217,0.838-0.435s0.614-0.475,0.875-0.768s0.344-0.51,0.247-0.65
		s-0.202-0.22-0.317-0.242s-0.328,0.04-0.639,0.183s-0.671,0.33-1.08,0.559s-0.824,0.494-1.246,0.795S9.054,5.93,8.793,6.155
		S8.229,6.716,7.885,7.16s-0.691,0.877-1.042,1.3S6.134,9.342,5.769,9.84S5.108,10.724,4.883,11
		c-0.226,0.275-0.481,0.543-0.768,0.801s-0.518,0.441-0.693,0.553s-0.378,0.164-0.607,0.161s-0.422-0.127-0.58-0.37l0.011-0.58
		c0.25-0.129,0.457-0.212,0.618-0.248c0.161-0.035,0.358-0.139,0.591-0.311c0.233-0.172,0.446-0.391,0.639-0.656
		s0.403-0.585,0.628-0.961s0.249-0.51,0.07-0.403S4.354,9.269,4.018,9.512s-0.661,0.419-0.972,0.526S2.695,10.057,2.928,9.77
		S3.461,9.195,3.83,8.905s0.732-0.602,1.09-0.935S5.688,7.26,6.15,6.837s0.886-0.884,1.273-1.386S8.105,4.558,8.31,4.275
		s0.356-0.51,0.457-0.682S8.997,3.311,9.158,3.26s0.303-0.036,0.424,0.043s0.197,0.204,0.226,0.376S9.729,4.082,9.486,4.372
		S9.08,4.859,8.997,4.963S8.854,5.19,8.814,5.333S8.861,5.47,9.072,5.312z"/>
	<path fill="#FDFDFE" d="M11.441,10.554c0.093-0.201,0.245-0.408,0.457-0.623s0.422-0.401,0.634-0.559s0.428-0.265,0.65-0.322
		l0.247-0.011c0.222,0.007,0.416,0.068,0.58,0.183s0.234,0.317,0.209,0.607s-0.168,0.541-0.43,0.752s-0.557,0.363-0.886,0.456
		c-0.33,0.094-0.507,0.178-0.532,0.253s0.029,0.157,0.161,0.247s0.43,0.146,0.892,0.172s0.84,0,1.133-0.075s0.532-0.155,0.714-0.241
		s0.326-0.144,0.43-0.172c0.104-0.029,0.188,0.024,0.252,0.16c-0.186,0.266-0.39,0.461-0.612,0.586s-0.5,0.238-0.833,0.338
		c-0.333,0.101-0.739,0.162-1.219,0.184h-0.29c-0.523-0.051-0.875-0.121-1.058-0.21s-0.324-0.195-0.424-0.317
		c-0.1-0.121-0.172-0.304-0.215-0.547C11.301,11.041,11.348,10.755,11.441,10.554z M12.247,10.705
		c0.437-0.143,0.729-0.279,0.875-0.408s0.209-0.247,0.188-0.354s-0.143-0.104-0.365,0.011s-0.374,0.231-0.457,0.349
		S12.325,10.554,12.247,10.705z M15.416,6.185c-0.154,0.177-0.292,0.314-0.414,0.411S14.768,6.76,14.664,6.8
		S14.482,6.88,14.43,6.923c-0.052,0.043-0.118,0.085-0.196,0.126c-0.079,0.042-0.172,0.062-0.279,0.062
		c-0.111-0.021-0.181-0.041-0.209-0.056c-0.029-0.017-0.048-0.067-0.059-0.153c0.014-0.097,0.049-0.173,0.104-0.229
		c0.056-0.055,0.135-0.092,0.239-0.11s0.244-0.067,0.419-0.148c0.175-0.08,0.338-0.2,0.489-0.359c0.15-0.16,0.288-0.283,0.411-0.371
		c0.124-0.087,0.204-0.173,0.242-0.258c0.037-0.084,0.123-0.128,0.255-0.131c0.118,0.018,0.19,0.041,0.218,0.07
		c0.026,0.029,0.049,0.063,0.067,0.102c-0.003,0.018-0.022,0.039-0.056,0.062c-0.034,0.023-0.065,0.067-0.094,0.131
		s-0.091,0.124-0.188,0.177S15.569,6.007,15.416,6.185z"/>
	<path fill="#FDFDFE" d="M15.12,11.758c0.003-0.184,0.114-0.33,0.331-0.443c0.216-0.113,0.57-0.307,1.061-0.583
		c0.491-0.276,0.955-0.604,1.394-0.983c0.439-0.379,0.811-0.754,1.115-1.123s0.626-0.723,0.967-1.063s0.639-0.645,0.897-0.913
		s0.498-0.449,0.72-0.542l0.129,0.011c0.115,0.301,0,0.641-0.344,1.021S20.631,8,20.147,8.583s-0.922,1.094-1.316,1.531
		s-0.602,0.755-0.623,0.957c0.716-0.344,1.346-0.69,1.891-1.037s1.019-0.62,1.423-0.816s0.684-0.287,0.838-0.269
		s0.276,0.111,0.365,0.279s0.077,0.358-0.038,0.569s-0.32,0.31-0.618,0.295s-0.569,0.032-0.816,0.14s-0.498,0.229-0.752,0.365
		s-0.44,0.261-0.559,0.376s-0.127,0.267-0.027,0.457s0.29,0.318,0.569,0.387s0.63,0.099,1.053,0.092
		c0.422-0.008,0.797-0.036,1.123-0.086c0.326-0.051,0.593-0.117,0.8-0.199s0.365-0.18,0.473-0.29s0.201-0.157,0.279-0.14
		s0.14,0.105,0.183,0.264c-0.043,0.207-0.168,0.389-0.376,0.542s-0.491,0.276-0.849,0.365s-0.814,0.142-1.37,0.155
		c-0.555,0.015-1.063,0.004-1.525-0.031c-0.462-0.036-0.8-0.121-1.015-0.253s-0.297-0.432-0.247-0.897
		c-0.301,0.215-0.609,0.422-0.924,0.618s-0.626,0.399-0.935,0.606c-0.208,0.137-0.387,0.205-0.537,0.205
		c-0.079,0-0.15-0.019-0.215-0.055c-0.193-0.114-0.267-0.261-0.22-0.439c0.046-0.18,0.346-0.611,0.897-1.295
		c-0.562,0.391-1.024,0.662-1.386,0.814C15.333,11.944,15.142,11.933,15.12,11.758z"/>
	<path fill="#FDFDFE" d="M25.03,10.422c0.376-0.363,0.725-0.633,1.047-0.808s0.575-0.303,0.757-0.381s0.435-0.136,0.757-0.172
		c0.422,0.014,0.707,0.07,0.854,0.167s0.244,0.208,0.29,0.333S28.8,9.827,28.79,9.985s0.057,0.218,0.204,0.183
		s0.224,0.034,0.231,0.209s-0.063,0.358-0.209,0.548c-0.147,0.19-0.263,0.322-0.349,0.397s-0.111,0.159-0.075,0.252
		c0.036,0.094,0.134,0.162,0.295,0.205s0.359,0.033,0.593-0.029c0.235-0.063,0.438-0.152,0.61-0.27
		c0.172-0.116,0.328-0.179,0.467-0.188c0.14-0.01,0.231,0.043,0.274,0.158c-0.003,0.211-0.082,0.385-0.234,0.518
		c-0.152,0.135-0.369,0.244-0.649,0.328c-0.281,0.084-0.508,0.13-0.68,0.137c-0.172,0.008-0.276,0.012-0.312,0.012
		c-0.401,0-0.709-0.062-0.924-0.184c-0.236-0.129-0.412-0.297-0.526-0.504c-0.293,0.078-0.557,0.182-0.79,0.311
		s-0.458,0.227-0.677,0.291s-0.46,0.096-0.725,0.096c-0.183,0-0.372-0.084-0.566-0.252c-0.195-0.168-0.293-0.485-0.293-0.951
		C24.462,11.063,24.654,10.786,25.03,10.422z M26.056,10.576c-0.265,0.222-0.433,0.421-0.505,0.596
		c-0.072,0.176-0.05,0.31,0.064,0.402c0.115,0.094,0.297,0.101,0.548,0.021c0.25-0.078,0.51-0.188,0.779-0.327
		s0.51-0.287,0.725-0.44s0.34-0.297,0.376-0.43s0.023-0.271-0.038-0.414s-0.204-0.204-0.43-0.183s-0.469,0.1-0.73,0.236
		S26.321,10.354,26.056,10.576z"/>
	<path fill="#FDFDFE" d="M35.874,10.608c0.222,0.107,0.432,0.186,0.628,0.236s0.432,0.056,0.704,0.016s0.475-0.084,0.607-0.134
		s0.204-0.168,0.215-0.354s0.075-0.369,0.193-0.548s0.297-0.313,0.537-0.403s0.478-0.1,0.714-0.032S39.888,9.561,40.01,9.7
		s0.446,0.102,0.972-0.113s1.087-0.475,1.681-0.779s1.189-0.628,1.783-0.972s1.173-0.696,1.735-1.058s1.169-0.827,1.821-1.396
		s1.251-1.053,1.799-1.45s0.969-0.668,1.262-0.811s0.551-0.236,0.773-0.279h0.097c0.158,0,0.254,0.072,0.29,0.215
		c0.007,0.064,0.011,0.125,0.011,0.183c0,0.129-0.029,0.265-0.086,0.408c-0.086,0.215-0.324,0.437-0.714,0.666
		s-0.838,0.503-1.343,0.822s-0.956,0.632-1.354,0.94s-0.779,0.61-1.144,0.908s-0.722,0.602-1.069,0.913s-0.73,0.68-1.149,1.106
		s-0.757,0.777-1.015,1.053s-0.514,0.514-0.768,0.714s-0.501,0.397-0.741,0.59s-0.473,0.382-0.698,0.564s-0.532,0.389-0.918,0.617
		c-0.301,0.172-0.609,0.258-0.924,0.258c-0.1,0-0.201-0.01-0.301-0.031c-0.43-0.072-0.8-0.244-1.112-0.516
		c-0.312-0.272-0.5-0.475-0.564-0.607s-0.159-0.183-0.285-0.15s-0.335,0.088-0.628,0.166c-0.293,0.079-0.591,0.098-0.892,0.055
		s-0.564-0.148-0.79-0.317s-0.417-0.367-0.575-0.596l0.097-0.226C35.448,10.49,35.652,10.5,35.874,10.608z M39.559,10.898
		c0.272,0.422,0.539,0.657,0.8,0.704s0.534-0.008,0.816-0.161s0.61-0.365,0.983-0.634s0.809-0.623,1.311-1.063
		s1.049-0.947,1.644-1.52c-0.745,0.394-1.348,0.72-1.81,0.978s-1.001,0.53-1.617,0.816S40.361,10.597,39.559,10.898z"/>
	<path fill="#FDFDFE" d="M45.188,11.277c0.079-0.082,0.219-0.193,0.422-0.339c0.202-0.145,0.423-0.275,0.663-0.392
		c0.24-0.117,0.333-0.3,0.279-0.551s-0.04-0.421,0.04-0.51c0.081-0.089,0.193-0.167,0.339-0.231
		c0.145-0.064,0.343-0.125,0.593-0.183l0.516-0.011c0.444,0.021,0.814,0.05,1.112,0.086s0.501,0.088,0.612,0.156
		s0.172,0.175,0.183,0.322s-0.03,0.29-0.124,0.43s-0.233,0.285-0.419,0.435s-0.351,0.285-0.494,0.403s-0.322,0.249-0.537,0.393
		c-0.215,0.143-0.1,0.191,0.344,0.145s0.8-0.041,1.069,0.016c0.269,0.058,0.508,0.126,0.72,0.205
		c0.211,0.078,0.542-0.098,0.994-0.527l0.107,0.451c-0.258,0.301-0.46,0.527-0.607,0.678s-0.338,0.229-0.575,0.236
		c-0.236-0.021-0.435-0.055-0.596-0.098s-0.34-0.084-0.537-0.123s-0.435-0.056-0.714-0.049c-0.279,0.008-0.542,0.045-0.79,0.113
		s-0.473,0.105-0.677,0.113c-0.204,0.007-0.34-0.025-0.408-0.098c-0.068-0.071-0.104-0.164-0.107-0.279
		c-0.003-0.114,0.083-0.258,0.258-0.43s0.414-0.351,0.714-0.537c0.301-0.186,0.546-0.361,0.736-0.526s0.34-0.308,0.451-0.43
		s0.054-0.22-0.172-0.295s-0.44-0.107-0.645-0.097s-0.367,0.059-0.489,0.145s-0.208,0.222-0.258,0.408s-0.147,0.362-0.29,0.526
		s-0.326,0.296-0.548,0.395c-0.222,0.098-0.43,0.215-0.623,0.352s-0.341,0.194-0.443,0.174c-0.103-0.02-0.177-0.086-0.223-0.201
		C45.067,11.449,45.109,11.357,45.188,11.277z"/>
	<path fill="#FDFDFE" d="M51.638,10.554c0.093-0.201,0.245-0.408,0.457-0.623s0.422-0.401,0.634-0.559s0.428-0.265,0.65-0.322
		l0.247-0.011c0.222,0.007,0.416,0.068,0.58,0.183s0.234,0.317,0.209,0.607s-0.168,0.541-0.43,0.752s-0.557,0.363-0.886,0.456
		c-0.33,0.094-0.507,0.178-0.532,0.253s0.029,0.157,0.161,0.247s0.43,0.146,0.892,0.172s0.84,0,1.133-0.075s0.532-0.155,0.714-0.241
		s0.326-0.144,0.43-0.172c0.104-0.029,0.188,0.024,0.252,0.16c-0.186,0.266-0.39,0.461-0.612,0.586s-0.5,0.238-0.833,0.338
		c-0.333,0.101-0.739,0.162-1.219,0.184h-0.29c-0.523-0.051-0.875-0.121-1.058-0.21s-0.324-0.195-0.424-0.317
		c-0.1-0.121-0.172-0.304-0.215-0.547C51.499,11.041,51.545,10.755,51.638,10.554z M52.444,10.705
		c0.437-0.143,0.729-0.279,0.875-0.408s0.209-0.247,0.188-0.354s-0.143-0.104-0.365,0.011s-0.374,0.231-0.457,0.349
		S52.522,10.554,52.444,10.705z"/>
	<path fill="#FDFDFE" d="M56.134,11.07c0.344-0.151,0.726-0.402,1.147-0.755c0.42-0.353,0.958-0.714,1.614-1.085
		c0.655-0.37,1.146-0.724,1.472-1.061s0.534-0.528,0.623-0.575s0.163-0.07,0.22-0.07s0.125,0.023,0.204,0.07
		s0.095,0.179,0.048,0.397s-0.238,0.519-0.575,0.902s-0.661,0.689-0.972,0.918s-0.732,0.63-1.262,1.203
		c0.723-0.314,1.307-0.578,1.751-0.789s0.845-0.371,1.203-0.478s0.664-0.181,0.918-0.22s0.44,0.007,0.559,0.14
		s0.136,0.336,0.054,0.612s-0.238,0.526-0.467,0.752s-0.376,0.401-0.44,0.526s0.053,0.186,0.352,0.18
		c0.299-0.006,0.542-0.045,0.728-0.121c0.186-0.074,0.368-0.188,0.545-0.34c0.177-0.152,0.307-0.127,0.389,0.077
		c-0.036,0.347-0.202,0.614-0.497,0.804c-0.296,0.188-0.672,0.307-1.131,0.359c-0.458,0.052-0.811,0.06-1.058,0.023
		c-0.247-0.035-0.419-0.153-0.516-0.354c-0.097-0.201-0.073-0.405,0.07-0.613c0.143-0.207,0.292-0.404,0.446-0.59
		s0.315-0.347,0.483-0.483s0.204-0.217,0.107-0.242s-0.271,0.005-0.521,0.091s-0.636,0.242-1.155,0.467s-1.012,0.476-1.477,0.752
		s-1.022,0.666-1.67,1.171s-1.158,0.937-1.531,1.295c-0.373,0.357-0.829,0.795-1.37,1.311s-1.028,0.918-1.461,1.208
		s-0.714,0.489-0.843,0.597c-0.122,0.093-0.25,0.139-0.387,0.139h-0.043c-0.158-0.007-0.254-0.086-0.29-0.236V17.01
		c0-0.143,0.143-0.322,0.43-0.537c0.322-0.236,0.72-0.576,1.192-1.02c0.473-0.444,1.108-1.002,1.907-1.671s1.404-1.187,1.815-1.552
		s0.755-0.683,1.031-0.951s0.725-0.704,1.348-1.305c-0.673,0.308-1.235,0.623-1.687,0.945c-0.451,0.323-0.841,0.598-1.171,0.827
		c-0.33,0.229-0.542,0.195-0.639-0.102C55.622,11.412,55.79,11.221,56.134,11.07z"/>
	<path fill="#FDFDFE" d="M63.82,10.554c0.093-0.201,0.245-0.408,0.457-0.623s0.422-0.401,0.634-0.559s0.428-0.265,0.65-0.322
		l0.247-0.011c0.222,0.007,0.416,0.068,0.58,0.183s0.234,0.317,0.209,0.607s-0.168,0.541-0.43,0.752s-0.557,0.363-0.886,0.456
		c-0.33,0.094-0.507,0.178-0.532,0.253s0.029,0.157,0.161,0.247s0.43,0.146,0.892,0.172s0.84,0,1.133-0.075s0.532-0.155,0.714-0.241
		s0.326-0.144,0.43-0.172c0.104-0.029,0.188,0.024,0.252,0.16c-0.186,0.266-0.39,0.461-0.612,0.586s-0.5,0.238-0.833,0.338
		c-0.333,0.101-0.739,0.162-1.219,0.184h-0.29c-0.523-0.051-0.875-0.121-1.058-0.21s-0.324-0.195-0.424-0.317
		c-0.1-0.121-0.172-0.304-0.215-0.547C63.68,11.041,63.727,10.755,63.82,10.554z M64.625,10.705
		c0.437-0.143,0.729-0.279,0.875-0.408s0.209-0.247,0.188-0.354s-0.143-0.104-0.365,0.011s-0.374,0.231-0.457,0.349
		S64.704,10.554,64.625,10.705z"/>
	<path fill="#FDFDFE" d="M67.461,11.027c0.007-0.229,0.03-0.405,0.07-0.527s0.105-0.204,0.199-0.247s0.211-0.057,0.354-0.043
		s0.25,0.256,0.322,0.725c0.301-0.057,0.561-0.142,0.779-0.252s0.426-0.218,0.623-0.319c0.197-0.103,0.428-0.21,0.693-0.325
		s0.512-0.241,0.741-0.379c0.229-0.138,0.401-0.273,0.516-0.408c0.115-0.134,0.201-0.27,0.258-0.408
		c0.057-0.138,0.154-0.223,0.29-0.255c0.161,0.003,0.279,0.037,0.354,0.1c0.075,0.063,0.122,0.208,0.14,0.438
		c-0.007,0.1-0.032,0.199-0.075,0.295s-0.137,0.212-0.282,0.346c-0.145,0.135-0.299,0.244-0.462,0.328
		c-0.163,0.084-0.344,0.187-0.542,0.309c-0.199,0.122-0.397,0.285-0.597,0.489c-0.198,0.204-0.342,0.402-0.43,0.594
		c-0.087,0.191-0.178,0.365-0.271,0.521c-0.093,0.154-0.234,0.282-0.424,0.381c-0.19,0.098-0.483,0.16-0.881,0.186
		c-0.265-0.008-0.473-0.041-0.623-0.103s-0.308-0.241-0.473-0.542S67.483,11.328,67.461,11.027z M68.96,11.773
		c0.204-0.032,0.391-0.104,0.561-0.213c0.17-0.108,0.343-0.271,0.519-0.488c0.175-0.216,0.252-0.364,0.231-0.443
		c-0.422,0.308-0.754,0.512-0.997,0.613c-0.241,0.1-0.486,0.189-0.733,0.268C68.616,11.718,68.756,11.806,68.96,11.773z"/>
	<path fill="#FDFDFE" d="M72.07,11.037c0.025-0.11,0.175-0.284,0.448-0.521c0.274-0.236,0.497-0.508,0.669-0.816
		s0.333-0.497,0.483-0.567c0.15-0.069,0.287-0.067,0.408,0.008s0.215,0.234,0.279,0.478s0.002,0.469-0.188,0.677
		s-0.389,0.362-0.596,0.465c-0.208,0.102-0.346,0.236-0.414,0.403c-0.068,0.166-0.052,0.301,0.048,0.405s0.249,0.134,0.446,0.091
		s0.394-0.117,0.591-0.225s0.394-0.234,0.591-0.382c0.197-0.147,0.41-0.312,0.639-0.494s0.358-0.374,0.387-0.575
		s0.077-0.387,0.145-0.559s0.158-0.292,0.269-0.36s0.256-0.102,0.435-0.102c0.201,0.086,0.376,0.179,0.526,0.279
		s0.193,0.265,0.129,0.494s-0.17,0.419-0.317,0.569s-0.249,0.281-0.306,0.392s-0.083,0.204-0.075,0.279s0.092,0.18,0.255,0.314
		c0.163,0.135,0.378,0.184,0.645,0.15c0.267-0.034,0.47-0.101,0.61-0.199c0.14-0.098,0.265-0.158,0.376-0.18s0.185,0.018,0.22,0.118
		s0.068,0.218,0.097,0.354c-0.258,0.172-0.507,0.314-0.747,0.428c-0.24,0.111-0.498,0.172-0.773,0.18
		c-0.276,0.007-0.532-0.057-0.768-0.188s-0.389-0.26-0.457-0.382c-0.068-0.121-0.136-0.193-0.204-0.215s-0.168,0.015-0.301,0.107
		c-0.132,0.094-0.317,0.231-0.553,0.414s-0.659,0.389-1.268,0.617h-0.494c-0.358-0.078-0.618-0.166-0.779-0.263
		s-0.284-0.234-0.368-0.413c-0.084-0.18-0.126-0.332-0.126-0.457C72.032,11.258,72.045,11.148,72.07,11.037z"/>
	<path fill="#FDFDFE" d="M78.87,10.422c0.376-0.363,0.725-0.633,1.047-0.808s0.575-0.303,0.757-0.381s0.435-0.136,0.757-0.172
		c0.422,0.014,0.707,0.07,0.854,0.167s0.244,0.208,0.29,0.333s0.064,0.267,0.054,0.424s0.057,0.218,0.204,0.183
		s0.224,0.034,0.231,0.209s-0.063,0.358-0.209,0.548c-0.147,0.19-0.263,0.322-0.349,0.397s-0.111,0.159-0.075,0.252
		c0.036,0.094,0.134,0.162,0.295,0.205s0.359,0.033,0.593-0.029c0.235-0.063,0.438-0.152,0.61-0.27
		c0.172-0.116,0.328-0.179,0.467-0.188c0.14-0.01,0.231,0.043,0.274,0.158c-0.003,0.211-0.082,0.385-0.234,0.518
		c-0.152,0.135-0.369,0.244-0.649,0.328c-0.281,0.084-0.508,0.13-0.68,0.137c-0.172,0.008-0.276,0.012-0.312,0.012
		c-0.401,0-0.709-0.062-0.924-0.184c-0.236-0.129-0.412-0.297-0.526-0.504c-0.293,0.078-0.557,0.182-0.79,0.311
		s-0.458,0.227-0.677,0.291s-0.46,0.096-0.725,0.096c-0.183,0-0.372-0.084-0.566-0.252c-0.195-0.168-0.293-0.485-0.293-0.951
		C78.302,11.063,78.494,10.786,78.87,10.422z M79.896,10.576c-0.265,0.222-0.433,0.421-0.505,0.596
		c-0.072,0.176-0.05,0.31,0.064,0.402c0.115,0.094,0.297,0.101,0.548,0.021c0.25-0.078,0.51-0.188,0.779-0.327
		s0.51-0.287,0.725-0.44s0.34-0.297,0.376-0.43s0.023-0.271-0.038-0.414s-0.204-0.204-0.43-0.183s-0.469,0.1-0.73,0.236
		S80.161,10.354,79.896,10.576z M83.913,6.185c-0.154,0.177-0.292,0.314-0.414,0.411S83.265,6.76,83.161,6.8
		s-0.182,0.081-0.233,0.124c-0.052,0.043-0.118,0.085-0.196,0.126c-0.079,0.042-0.172,0.062-0.279,0.062
		c-0.111-0.021-0.181-0.041-0.209-0.056c-0.029-0.017-0.048-0.067-0.059-0.153c0.014-0.097,0.049-0.173,0.104-0.229
		c0.056-0.055,0.135-0.092,0.239-0.11s0.244-0.067,0.419-0.148c0.175-0.08,0.338-0.2,0.489-0.359c0.15-0.16,0.288-0.283,0.411-0.371
		c0.124-0.087,0.204-0.173,0.242-0.258c0.037-0.084,0.123-0.128,0.255-0.131c0.118,0.018,0.19,0.041,0.218,0.07
		c0.026,0.029,0.049,0.063,0.067,0.102c-0.003,0.018-0.022,0.039-0.056,0.062c-0.034,0.023-0.065,0.067-0.094,0.131
		s-0.091,0.124-0.188,0.177S84.067,6.007,83.913,6.185z"/>
	<path fill="#FDFDFE" d="M83.951,11.35c0.473-0.266,0.961-0.668,1.466-1.209s0.897-0.863,1.176-0.967s0.587-0.156,0.924-0.156
		c0.129,0.007,0.24,0.036,0.333,0.086S88,9.238,88.022,9.356s0.018,0.249-0.011,0.392s-0.115,0.317-0.258,0.521
		s-0.313,0.376-0.51,0.516s-0.333,0.267-0.408,0.381c-0.075,0.115-0.081,0.229-0.016,0.339s0.313,0.122,0.747,0.032
		s0.754-0.172,0.961-0.247s0.43-0.167,0.666-0.274l0.129,0.484c-0.523,0.243-0.988,0.451-1.396,0.623s-0.838,0.286-1.289,0.344
		c-0.301,0-0.53-0.014-0.688-0.038s-0.303-0.091-0.435-0.198s-0.215-0.24-0.247-0.398c-0.032-0.157-0.005-0.311,0.081-0.461
		s0.215-0.294,0.387-0.43s0.354-0.245,0.548-0.328s0.36-0.199,0.5-0.349s0.174-0.265,0.102-0.344s-0.175-0.102-0.312-0.07
		s-0.458,0.303-0.967,0.811s-1.017,0.87-1.525,1.084L83.951,11.35z"/>
	<path fill="#FDFDFE" d="M89.526,10.433c0.265-0.345,0.568-0.594,0.91-0.746c0.342-0.152,0.617-0.313,0.825-0.481
		s0.406-0.226,0.597-0.172c0.189,0.054,0.282,0.174,0.279,0.36c-0.004,0.186-0.111,0.344-0.322,0.473
		c-0.212,0.129-0.369,0.267-0.473,0.414c-0.104,0.147-0.188,0.31-0.253,0.489s-0.066,0.358-0.005,0.538
		c0.061,0.179,0.177,0.295,0.349,0.349s0.44,0.079,0.806,0.075s0.686-0.041,0.961-0.113c0.276-0.071,0.518-0.17,0.726-0.295
		s0.384-0.17,0.526-0.135l0.064,0.258c-0.094,0.15-0.228,0.277-0.402,0.382c-0.176,0.104-0.35,0.191-0.521,0.263
		c-0.172,0.072-0.417,0.144-0.736,0.215c-0.318,0.072-0.682,0.133-1.09,0.184l-0.451,0.021c-0.365-0.043-0.63-0.113-0.795-0.21
		s-0.299-0.228-0.403-0.392c-0.104-0.165-0.159-0.33-0.167-0.494c-0.007-0.165,0.013-0.329,0.059-0.492
		c0.046-0.163-0.003-0.159-0.147,0.013c-0.146,0.172-0.345,0.331-0.599,0.479c-0.254,0.146-0.469,0.264-0.645,0.352
		s-0.295-0.049-0.36-0.411C88.838,11.086,89.261,10.779,89.526,10.433z M94.741,6.209l-0.193-0.054
		c-0.193-0.222-0.341-0.383-0.44-0.483c0.094-0.201,0.271-0.379,0.537-0.537l0.204-0.011c0.172,0.079,0.261,0.183,0.269,0.312
		s0.097,0.25,0.269,0.365l-0.075,0.183C95.139,6.091,94.949,6.166,94.741,6.209z"/>
	<path fill="#FDFDFE" d="M102.094,9.361c0-0.187,0.068-0.347,0.203-0.483c0.135-0.135,0.301-0.203,0.496-0.203
		c0.188,0,0.348,0.067,0.484,0.203c0.135,0.136,0.203,0.296,0.203,0.483c0,0.196-0.068,0.362-0.203,0.497
		c-0.137,0.136-0.297,0.203-0.484,0.203c-0.195,0-0.361-0.067-0.496-0.203C102.162,9.723,102.094,9.558,102.094,9.361z"/>
	<path fill="#FDFDFE" d="M114.33,12.302c0-0.103-0.027-0.131-0.084-0.084c-0.242,0.196-0.551,0.294-0.924,0.294
		c-0.57,0-1.037-0.21-1.4-0.631c-0.336-0.391-0.504-0.872-0.504-1.441c0-0.495,0.166-0.921,0.496-1.281
		c0.332-0.359,0.736-0.539,1.211-0.539c0.383,0,0.715,0.07,0.994,0.21c0.141,0.065,0.211,0.005,0.211-0.182V3.076
		c0-0.149,0.061-0.243,0.182-0.28c0.047-0.019,0.164-0.028,0.35-0.028c0.197,0,0.313,0.009,0.352,0.028
		c0.121,0.038,0.182,0.131,0.182,0.28v9.072c0,0.149-0.061,0.243-0.182,0.28c-0.039,0.019-0.154,0.027-0.352,0.027
		C114.508,12.455,114.33,12.404,114.33,12.302z M113.154,8.941c-0.346,0-0.656,0.145-0.932,0.434
		c-0.275,0.29-0.412,0.649-0.412,1.078c0,0.485,0.133,0.894,0.398,1.225s0.617,0.497,1.057,0.497c0.551,0,0.906-0.196,1.064-0.588
		V9.501C114.135,9.128,113.742,8.941,113.154,8.941z"/>
	<path fill="#FDFDFE" d="M118.342,10.972c-0.076,0-0.152,0-0.227,0c-0.113-0.009-0.217,0.017-0.313,0.078
		c-0.094,0.062-0.137,0.148-0.127,0.262c0.02,0.245,0.047,0.448,0.086,0.608c0.084,0.143,0.203,0.232,0.354,0.27
		c0.066,0.019,0.227,0.028,0.482,0.028c0.322,0,0.652-0.106,0.994-0.32c0.047-0.029,0.088-0.044,0.127-0.044
		c0.076,0,0.113,0.043,0.113,0.129c0,0.066-0.023,0.123-0.07,0.171c-0.309,0.276-0.691,0.414-1.148,0.414
		c-0.568,0-1.047-0.185-1.434-0.555c-0.389-0.37-0.582-0.831-0.582-1.384c0-0.571,0.207-1.059,0.623-1.461
		c0.416-0.403,0.955-0.604,1.617-0.604c0.309,0,0.592,0.089,0.854,0.266c0.281,0.206,0.42,0.462,0.42,0.77
		c0,0.448-0.158,0.789-0.475,1.022S118.889,10.972,118.342,10.972z M118.408,10.678c0.33,0,0.625-0.092,0.889-0.275
		c0.264-0.183,0.395-0.421,0.395-0.713c0-0.499-0.324-0.748-0.973-0.748c-0.469,0-0.785,0.132-0.943,0.396
		c-0.057,0.245-0.09,0.574-0.1,0.988c-0.01,0.113,0.084,0.202,0.281,0.268C118.117,10.649,118.268,10.678,118.408,10.678z"/>
	<path fill="#FDFDFE" d="M122.939,8.578c0.457,0,0.803,0.107,1.037,0.322c0.047,0.038,0.07,0.084,0.07,0.14
		c0,0.103-0.057,0.154-0.168,0.154c-0.057,0-0.117-0.019-0.184-0.056c-0.223-0.149-0.461-0.224-0.713-0.224
		c-0.393,0-0.588,0.117-0.588,0.35c0,0.112,0.266,0.354,0.797,0.728c0.477,0.336,0.738,0.522,0.785,0.56
		c0.232,0.224,0.35,0.476,0.35,0.756c0,0.336-0.15,0.62-0.447,0.854c-0.299,0.232-0.641,0.35-1.023,0.35
		c-0.514,0-0.914-0.154-1.203-0.462c-0.057-0.065-0.084-0.126-0.084-0.183c0-0.111,0.055-0.168,0.168-0.168
		c0.057,0,0.107,0.023,0.154,0.07c0.307,0.28,0.588,0.42,0.84,0.42c0.578,0,0.867-0.135,0.867-0.406
		c0-0.168-0.299-0.467-0.896-0.896c-0.242-0.177-0.488-0.354-0.74-0.532c-0.244-0.214-0.365-0.453-0.365-0.714
		c0-0.308,0.139-0.562,0.414-0.763C122.285,8.678,122.594,8.578,122.939,8.578z"/>
	<path fill="#FDFDFE" d="M126.355,12.455c-0.195,0-0.313-0.009-0.35-0.027c-0.121-0.037-0.182-0.131-0.182-0.28V8.956
		c0-0.149,0.061-0.243,0.182-0.28c0.037-0.019,0.154-0.028,0.35-0.028c0.188,0,0.303,0.009,0.35,0.028
		c0.121,0.037,0.182,0.13,0.182,0.28v3.192c0,0.149-0.061,0.243-0.182,0.28C126.658,12.446,126.543,12.455,126.355,12.455z
		 M125.865,7.136c0-0.149,0.051-0.275,0.154-0.378c0.104-0.103,0.225-0.154,0.363-0.154c0.15,0,0.275,0.051,0.379,0.154
		c0.102,0.103,0.154,0.229,0.154,0.378s-0.053,0.275-0.154,0.378c-0.104,0.103-0.229,0.154-0.379,0.154
		c-0.139,0-0.26-0.051-0.363-0.154S125.865,7.285,125.865,7.136z"/>
	<path fill="#FDFDFE" d="M130.346,8.662c0.309,0,0.592,0.084,0.854,0.252c0.066,0.047,0.104,0.038,0.113-0.028
		c0.027-0.149,0.145-0.224,0.35-0.224c-0.02,0,0.041,0,0.182,0h0.014c0.15,0,0.211,0,0.182,0c0.234,0.009,0.352,0.112,0.352,0.308
		v4.046c0,0.42-0.154,0.824-0.463,1.211s-0.678,0.627-1.105,0.721c-0.205,0.047-0.309-0.014-0.309-0.182
		c0-0.057,0.037-0.104,0.109-0.141c0.459-0.215,0.689-0.551,0.689-1.008V12.26c-0.01-0.065-0.07-0.061-0.182,0.015
		c-0.289,0.195-0.617,0.293-0.99,0.293c-0.51,0-0.932-0.175-1.26-0.526c-0.33-0.352-0.496-0.78-0.496-1.286
		c0-0.618,0.18-1.122,0.539-1.51S129.758,8.662,130.346,8.662z M130.281,9.012c-0.428,0-0.785,0.164-1.072,0.492
		s-0.432,0.712-0.432,1.153c0,0.431,0.131,0.794,0.391,1.089c0.26,0.296,0.611,0.443,1.059,0.443c0.482,0,0.844-0.159,1.086-0.479
		V9.532C131.053,9.185,130.709,9.012,130.281,9.012z"/>
	<path fill="#FDFDFE" d="M137.779,9.852v2.296c0,0.149-0.061,0.243-0.184,0.28c-0.047,0.019-0.166,0.027-0.355,0.027
		c-0.197,0-0.316-0.009-0.354-0.027c-0.123-0.037-0.186-0.131-0.186-0.28v-2.73c0-0.205-0.064-0.336-0.191-0.392
		c-0.064-0.028-0.197-0.042-0.4-0.042c-0.201,0-0.426,0.089-0.674,0.266s-0.371,0.336-0.371,0.476v2.422
		c0,0.149-0.063,0.243-0.186,0.28c-0.047,0.019-0.164,0.027-0.354,0.027c-0.199,0-0.318-0.009-0.355-0.027
		c-0.123-0.037-0.184-0.131-0.184-0.281V8.915c0-0.15,0.061-0.243,0.182-0.281c0.037-0.019,0.154-0.028,0.35-0.028
		c0.188,0,0.303,0.01,0.35,0.029c0.121,0.039,0.184,0.135,0.184,0.289c0,0.087,0.008,0.13,0.027,0.13
		c0.018,0,0.078-0.033,0.182-0.098c0.393-0.252,0.766-0.378,1.121-0.378c0.373,0,0.699,0.124,0.979,0.371
		C137.641,9.196,137.779,9.497,137.779,9.852z"/>
	<path fill="#FDFDFE" d="M143.156,8.802c0,0.103,0.027,0.131,0.084,0.084c0.242-0.196,0.551-0.294,0.924-0.294
		c0.578,0,1.033,0.17,1.365,0.511c0.33,0.341,0.496,0.772,0.496,1.295c0,0.523-0.152,0.985-0.461,1.386
		c-0.346,0.448-0.785,0.672-1.316,0.672c-0.336,0-0.631-0.061-0.883-0.182c-0.139-0.074-0.209-0.014-0.209,0.182v2.072
		c0,0.149-0.061,0.242-0.182,0.28c-0.047,0.019-0.164,0.028-0.35,0.028c-0.197,0-0.314-0.01-0.352-0.028
		c-0.121-0.038-0.182-0.131-0.182-0.28V8.956c0-0.159,0.061-0.257,0.182-0.294c0.037-0.009,0.154-0.014,0.352-0.014
		C142.979,8.647,143.156,8.699,143.156,8.802z M144.221,12.134c0.391,0,0.725-0.175,1-0.525c0.275-0.35,0.414-0.758,0.414-1.225
		c0-0.392-0.123-0.728-0.365-1.008c-0.27-0.298-0.621-0.448-1.049-0.448c-0.551,0-0.906,0.196-1.064,0.588v2.086
		C143.342,11.957,143.697,12.134,144.221,12.134z"/>
	<path fill="#FDFDFE" d="M147.385,10.586c0-0.548,0.197-1.016,0.594-1.402s0.875-0.579,1.436-0.579s1.039,0.193,1.436,0.579
		s0.594,0.854,0.594,1.402s-0.197,1.017-0.594,1.402c-0.396,0.387-0.875,0.579-1.436,0.579s-1.039-0.192-1.436-0.579
		C147.582,11.604,147.385,11.135,147.385,10.586z M148.561,9.304c-0.066,0.316-0.098,0.743-0.098,1.282
		c0,0.539,0.031,0.966,0.098,1.283c0.139,0.232,0.42,0.349,0.84,0.349c0.494,0,0.893-0.153,1.197-0.46
		c0.303-0.307,0.455-0.692,0.455-1.157s-0.15-0.855-0.449-1.171s-0.699-0.474-1.203-0.474C148.98,8.956,148.699,9.072,148.561,9.304
		z"/>
	<path fill="#FDFDFE" d="M155.475,9.572c0-0.168-0.064-0.315-0.193-0.441s-0.297-0.189-0.5-0.189c-0.193,0-0.387,0.094-0.576,0.28
		s-0.283,0.354-0.283,0.504v2.422c0,0.149-0.063,0.243-0.186,0.28c-0.047,0.019-0.164,0.027-0.354,0.027
		c-0.199,0-0.318-0.009-0.355-0.027c-0.123-0.037-0.184-0.131-0.184-0.281V8.915c0-0.15,0.061-0.243,0.182-0.281
		c0.037-0.019,0.154-0.028,0.35-0.028c0.188,0,0.303,0.01,0.35,0.029c0.121,0.039,0.184,0.137,0.184,0.293
		c0.316-0.233,0.619-0.35,0.91-0.35c0.336,0,0.615,0.117,0.84,0.35c0.186,0.196,0.27,0.396,0.252,0.602
		c-0.029,0.28-0.154,0.534-0.379,0.763c-0.225,0.229-0.477,0.325-0.756,0.287c-0.168-0.019-0.252-0.07-0.252-0.154
		c0-0.131,0.08-0.196,0.238-0.196c0.195,0,0.363-0.061,0.504-0.182C155.406,9.926,155.475,9.768,155.475,9.572z"/>
	<path fill="#FDFDFE" d="M157.449,8.297c0-0.14-0.084-0.21-0.252-0.21c-0.141,0-0.225,0-0.252,0
		c-0.066-0.019-0.098-0.079-0.098-0.182c0-0.103,0.031-0.164,0.098-0.182c0.027-0.009,0.119-0.014,0.273-0.014
		s0.23-0.061,0.23-0.182V5.372c0-0.224,0.184-0.42,0.553-0.588c0.096-0.047,0.186-0.07,0.27-0.07c0.17,0,0.256,0.098,0.256,0.294
		v2.52c0,0.112,0.074,0.168,0.221,0.168c0.027,0,0.08,0,0.158,0s0.15,0,0.213,0c0.203,0,0.305,0.07,0.305,0.21
		c0,0.121-0.102,0.182-0.305,0.182c-0.063,0-0.135,0-0.213,0s-0.131,0-0.158,0c-0.146,0-0.221,0.075-0.221,0.224v3.836
		c0,0.149-0.063,0.243-0.184,0.28c-0.049,0.019-0.166,0.027-0.355,0.027s-0.307-0.009-0.355-0.027
		c-0.123-0.037-0.184-0.131-0.184-0.28V8.297z"/>
	<path fill="#FDFDFE" d="M161.957,4.159v3.356c0,0.111,0.074,0.167,0.221,0.167c0.027,0,0.086,0,0.172,0c0.088,0,0.164,0,0.229,0
		c0.211,0,0.316,0.073,0.316,0.217c0,0.126-0.105,0.188-0.316,0.188c-0.064,0-0.141,0-0.229,0c-0.086,0-0.145,0-0.172,0
		c-0.146,0-0.221,0.075-0.221,0.224v3.836c0,0.149-0.061,0.243-0.184,0.28c-0.047,0.019-0.166,0.027-0.355,0.027
		s-0.307-0.009-0.354-0.027c-0.123-0.037-0.186-0.131-0.186-0.28v-3.85c0-0.14-0.084-0.21-0.252-0.21c-0.141,0-0.225,0-0.252,0
		c-0.064-0.019-0.098-0.079-0.098-0.182c0-0.102,0.033-0.163,0.098-0.181c0.027-0.009,0.119-0.014,0.273-0.014s0.23-0.06,0.23-0.181
		V5.127c0-0.577,0.141-1.094,0.42-1.55c0.318-0.53,0.738-0.795,1.26-0.795c0.271,0,0.48,0.073,0.631,0.218
		c0.057,0.055,0.084,0.109,0.084,0.164c0,0.1-0.057,0.15-0.166,0.15c-0.057,0-0.111-0.011-0.166-0.034
		c-0.148-0.061-0.273-0.092-0.375-0.092C162.16,3.188,161.957,3.511,161.957,4.159z"/>
	<path fill="#FDFDFE" d="M163.609,10.586c0-0.548,0.199-1.016,0.596-1.402s0.875-0.579,1.436-0.579c0.559,0,1.037,0.193,1.434,0.579
		s0.596,0.854,0.596,1.402s-0.199,1.017-0.596,1.402c-0.396,0.387-0.875,0.579-1.434,0.579c-0.561,0-1.039-0.192-1.436-0.579
		C163.809,11.604,163.609,11.135,163.609,10.586z M164.785,9.304c-0.064,0.316-0.098,0.743-0.098,1.282
		c0,0.539,0.033,0.966,0.098,1.283c0.141,0.232,0.42,0.349,0.84,0.349c0.496,0,0.895-0.153,1.197-0.46s0.455-0.692,0.455-1.157
		s-0.148-0.855-0.447-1.171s-0.701-0.474-1.205-0.474C165.205,8.956,164.926,9.072,164.785,9.304z"/>
	<path fill="#FDFDFE" d="M169.594,12.455c-0.199,0-0.316-0.009-0.354-0.027c-0.123-0.037-0.186-0.131-0.186-0.279V3.089
		c0-0.149,0.063-0.243,0.186-0.28c0.037-0.019,0.154-0.028,0.354-0.028c0.189,0,0.307,0.009,0.355,0.028
		c0.123,0.037,0.184,0.13,0.184,0.28v9.059c0,0.148-0.061,0.242-0.184,0.279C169.9,12.446,169.783,12.455,169.594,12.455z"/>
	<path fill="#FDFDFE" d="M172.135,12.455c-0.195,0-0.313-0.009-0.35-0.027c-0.121-0.037-0.182-0.131-0.182-0.28V8.956
		c0-0.149,0.061-0.243,0.182-0.28c0.037-0.019,0.154-0.028,0.35-0.028c0.188,0,0.303,0.009,0.35,0.028
		c0.121,0.037,0.182,0.13,0.182,0.28v3.192c0,0.149-0.061,0.243-0.182,0.28C172.438,12.446,172.322,12.455,172.135,12.455z
		 M171.645,7.136c0-0.149,0.051-0.275,0.154-0.378c0.104-0.103,0.225-0.154,0.363-0.154c0.15,0,0.275,0.051,0.379,0.154
		c0.102,0.103,0.154,0.229,0.154,0.378s-0.053,0.275-0.154,0.378c-0.104,0.103-0.229,0.154-0.379,0.154
		c-0.139,0-0.26-0.051-0.363-0.154S171.645,7.285,171.645,7.136z"/>
	<path fill="#FDFDFE" d="M174.137,10.586c0-0.548,0.199-1.016,0.596-1.402s0.875-0.579,1.436-0.579c0.559,0,1.037,0.193,1.434,0.579
		s0.596,0.854,0.596,1.402s-0.199,1.017-0.596,1.402c-0.396,0.387-0.875,0.579-1.434,0.579c-0.561,0-1.039-0.192-1.436-0.579
		C174.336,11.604,174.137,11.135,174.137,10.586z M175.313,9.304c-0.064,0.316-0.098,0.743-0.098,1.282
		c0,0.539,0.033,0.966,0.098,1.283c0.141,0.232,0.42,0.349,0.84,0.349c0.496,0,0.895-0.153,1.197-0.46s0.455-0.692,0.455-1.157
		s-0.148-0.855-0.447-1.171s-0.701-0.474-1.205-0.474C175.732,8.956,175.453,9.072,175.313,9.304z"/>
</g>
</svg>
