<?xml version="1.0" encoding="utf-8"?>
<!-- Generator: Adobe Illustrator 16.0.0, SVG Export Plug-In . SVG Version: 6.00 Build 0)  -->
<!DOCTYPE svg PUBLIC "-//W3C//DTD SVG 1.1//EN" "http://www.w3.org/Graphics/SVG/1.1/DTD/svg11.dtd">
<svg version="1.1" id="Layer_1" xmlns="http://www.w3.org/2000/svg" xmlns:xlink="http://www.w3.org/1999/xlink" x="0px" y="0px"
	 width="180px" height="20px" viewBox="0 0 180 20" enable-background="new 0 0 180 20" xml:space="preserve">
<g>
	<path fill="#FFFFFF" stroke="#FFFFFF" stroke-width="0.5" stroke-miterlimit="10" d="M6.835,12.574
		c-0.319-0.318-0.726-0.506-1.155-0.506h-0.66v2.42H4.58V6.237h1.881c1.606,0,2.916,1.309,2.916,2.915
		c0,1.463-1.089,2.674-2.486,2.883c0.088,0.076,0.165,0.143,0.253,0.221l2.233,2.232H8.75L6.835,12.574z M5.021,11.629h1.441
		c1.364,0,2.476-1.112,2.476-2.477S7.826,6.677,6.461,6.677H5.021V11.629z"/>
	<path fill="#FFFFFF" stroke="#FFFFFF" stroke-width="0.5" stroke-miterlimit="10" d="M11.026,6.237h4.786v0.44h-4.345v3.465h3.465
		v0.44h-3.465v3.466h4.345v0.439h-4.786V6.237z"/>
	<path fill="#FFFFFF" stroke="#FFFFFF" stroke-width="0.5" stroke-miterlimit="10" d="M19.584,10.275l3.377,4.213H22.39
		l-3.091-3.861l-1.397,1.75v2.111h-0.44V6.237h0.44v5.435l4.356-5.435h0.561L19.584,10.275z"/>
	<path fill="#FFFFFF" stroke="#FFFFFF" stroke-width="0.5" stroke-miterlimit="10" d="M29.473,12.156h-4.28l-0.935,2.332h-0.473
		l3.312-8.251h0.473l3.312,8.251h-0.462L29.473,12.156z M25.37,11.717h3.927l-1.958-4.886L25.37,11.717z"/>
	<path fill="#FFFFFF" d="M32.322,12.904c0.363,0.748,1.111,1.199,1.914,1.199c1.221,0,2.112-1.023,2.112-2.123
		c0-0.826-0.473-1.53-1.122-1.871l-1.408-0.759c-0.539-0.297-0.913-0.836-0.902-1.529c0-0.902,0.704-1.727,1.716-1.727
		c0.66,0,1.254,0.352,1.551,0.935L35.809,7.26c-0.22-0.473-0.671-0.737-1.155-0.737c-0.759,0-1.32,0.638-1.32,1.31
		c0,0.528,0.297,0.935,0.682,1.155l1.408,0.748c0.803,0.429,1.353,1.254,1.353,2.255c0,1.332-1.045,2.543-2.563,2.543
		c-0.924,0-1.782-0.506-2.233-1.344L32.322,12.904z"/>
	<path fill="#FFFFFF" d="M37.524,6.237h5.138v0.209l-4.917,7.603h5.215v0.439H37.15v-0.352l4.83-7.459h-4.456V6.237z"/>
	<path fill="#FFFFFF" d="M43.783,6.237h4.786v0.44h-4.345v3.465h3.465v0.44h-3.465v3.466h4.345v0.439h-4.786V6.237z"/>
	<path fill="#FFFFFF" d="M51.274,6.237c1.606,0,2.916,1.309,2.916,2.915c0,1.606-1.309,2.916-2.916,2.916h-1.441v2.42h-0.44V6.237
		H51.274z M49.833,11.629h1.441c1.364,0,2.476-1.112,2.476-2.477s-1.111-2.475-2.476-2.475h-1.441V11.629z"/>
	<path fill="#FFFFFF" d="M55.014,6.237H59.8v0.44h-4.345v3.465h3.465v0.44h-3.465v3.466H59.8v0.439h-4.786V6.237z"/>
	<path fill="#FFFFFF" d="M60.965,12.904c0.363,0.748,1.111,1.199,1.914,1.199c1.221,0,2.112-1.023,2.112-2.123
		c0-0.826-0.473-1.53-1.122-1.871l-1.408-0.759c-0.539-0.297-0.913-0.836-0.902-1.529c0-0.902,0.704-1.727,1.716-1.727
		c0.66,0,1.254,0.352,1.551,0.935L64.453,7.26c-0.22-0.473-0.671-0.737-1.155-0.737c-0.759,0-1.32,0.638-1.32,1.31
		c0,0.528,0.297,0.935,0.682,1.155l1.408,0.748c0.803,0.429,1.353,1.254,1.353,2.255c0,1.332-1.045,2.543-2.563,2.543
		c-0.924,0-1.782-0.506-2.233-1.344L60.965,12.904z"/>
	<path fill="#FFFFFF" d="M68.974,13.895l3.081-7.657h0.462l-3.312,8.251h-0.473L65.42,6.237h0.473L68.974,13.895z"/>
	<path fill="#FFFFFF" d="M76.938,12.156h-4.28l-0.935,2.332H71.25l3.312-8.251h0.473l3.312,8.251h-0.462L76.938,12.156z
		 M72.834,11.717h3.927l-1.958-4.886L72.834,11.717z"/>
	<path fill="#FFFFFF" d="M81.425,12.574c-0.319-0.318-0.726-0.506-1.155-0.506h-0.66v2.42h-0.44V6.237h1.881
		c1.606,0,2.916,1.309,2.916,2.915c0,1.463-1.089,2.674-2.486,2.883c0.088,0.076,0.165,0.143,0.253,0.221l2.233,2.232H83.34
		L81.425,12.574z M79.61,11.629h1.441c1.364,0,2.476-1.112,2.476-2.477s-1.111-2.475-2.476-2.475H79.61V11.629z"/>
	<path fill="#FFFFFF" d="M84.868,6.237h0.44v8.251h-0.44V6.237z"/>
	<path fill="#FFFFFF" d="M93.941,11.395c0-0.188,0.066-0.348,0.203-0.483c0.135-0.135,0.301-0.203,0.496-0.203
		c0.188,0,0.348,0.067,0.483,0.203c0.136,0.136,0.203,0.296,0.203,0.483c0,0.195-0.067,0.361-0.203,0.496
		c-0.136,0.137-0.296,0.203-0.483,0.203c-0.195,0-0.361-0.066-0.496-0.203C94.008,11.756,93.941,11.59,93.941,11.395z"/>
	<path fill="#FFFFFF" d="M106.176,14.334c0-0.102-0.027-0.131-0.084-0.084c-0.242,0.197-0.551,0.295-0.923,0.295
		c-0.569,0-1.036-0.211-1.399-0.631c-0.336-0.391-0.504-0.873-0.504-1.441c0-0.494,0.165-0.922,0.496-1.281
		c0.332-0.359,0.735-0.539,1.211-0.539c0.383,0,0.715,0.07,0.994,0.21c0.141,0.065,0.209,0.005,0.209-0.182V5.108
		c0-0.149,0.061-0.243,0.184-0.28c0.045-0.019,0.162-0.028,0.35-0.028c0.195,0,0.313,0.009,0.35,0.028
		c0.121,0.038,0.182,0.131,0.182,0.28v9.071c0,0.15-0.061,0.244-0.182,0.281c-0.037,0.018-0.154,0.027-0.35,0.027
		C106.354,14.488,106.176,14.438,106.176,14.334z M105.001,10.974c-0.345,0-0.655,0.145-0.931,0.434s-0.413,0.648-0.413,1.078
		c0,0.486,0.133,0.895,0.399,1.225c0.266,0.332,0.617,0.498,1.057,0.498c0.551,0,0.904-0.197,1.063-0.588v-2.086
		C105.98,11.162,105.588,10.974,105.001,10.974z"/>
	<path fill="#FFFFFF" d="M110.188,13.004c-0.074,0-0.15,0-0.227,0c-0.113-0.008-0.217,0.018-0.311,0.078
		c-0.096,0.063-0.137,0.148-0.127,0.262c0.018,0.246,0.047,0.449,0.084,0.609c0.086,0.143,0.203,0.232,0.355,0.27
		c0.066,0.018,0.227,0.027,0.482,0.027c0.32,0,0.652-0.105,0.992-0.32c0.047-0.029,0.09-0.043,0.127-0.043
		c0.076,0,0.113,0.043,0.113,0.129c0,0.066-0.023,0.123-0.068,0.17c-0.309,0.277-0.691,0.414-1.148,0.414
		c-0.57,0-1.049-0.184-1.436-0.555c-0.387-0.369-0.58-0.83-0.58-1.383c0-0.572,0.207-1.059,0.623-1.461
		c0.414-0.403,0.953-0.605,1.617-0.605c0.307,0,0.592,0.089,0.854,0.266c0.279,0.206,0.42,0.462,0.42,0.771
		c0,0.447-0.158,0.789-0.475,1.021C111.168,12.889,110.736,13.004,110.188,13.004z M110.256,12.711c0.328,0,0.625-0.092,0.889-0.275
		c0.262-0.184,0.395-0.422,0.395-0.713c0-0.498-0.324-0.749-0.973-0.749c-0.471,0-0.785,0.131-0.945,0.395
		c-0.057,0.246-0.09,0.574-0.098,0.988c-0.01,0.113,0.084,0.203,0.281,0.268C109.965,12.682,110.115,12.711,110.256,12.711z"/>
	<path fill="#FFFFFF" d="M114.787,10.61c0.457,0,0.803,0.107,1.035,0.322c0.047,0.038,0.07,0.083,0.07,0.14
		c0,0.104-0.057,0.154-0.168,0.154c-0.057,0-0.117-0.02-0.182-0.057c-0.225-0.148-0.463-0.224-0.715-0.224
		c-0.391,0-0.588,0.116-0.588,0.351c0,0.111,0.266,0.354,0.799,0.729c0.477,0.336,0.736,0.521,0.783,0.559
		c0.234,0.225,0.35,0.477,0.35,0.756c0,0.336-0.148,0.621-0.447,0.855c-0.299,0.232-0.639,0.35-1.021,0.35
		c-0.514,0-0.916-0.154-1.205-0.463c-0.055-0.064-0.084-0.125-0.084-0.182c0-0.111,0.057-0.168,0.168-0.168
		c0.057,0,0.107,0.023,0.154,0.07c0.309,0.279,0.588,0.42,0.84,0.42c0.58,0,0.869-0.135,0.869-0.406
		c0-0.168-0.299-0.467-0.896-0.896c-0.242-0.176-0.49-0.354-0.742-0.531c-0.242-0.215-0.363-0.453-0.363-0.715
		c0-0.307,0.137-0.561,0.412-0.763C114.131,10.71,114.441,10.61,114.787,10.61z"/>
	<path fill="#FFFFFF" d="M118.203,14.488c-0.197,0-0.314-0.01-0.352-0.027c-0.121-0.037-0.182-0.131-0.182-0.281v-3.191
		c0-0.149,0.061-0.243,0.182-0.28c0.037-0.019,0.154-0.028,0.352-0.028c0.186,0,0.303,0.009,0.35,0.028
		c0.121,0.037,0.182,0.13,0.182,0.28v3.191c0,0.15-0.061,0.244-0.182,0.281C118.506,14.479,118.389,14.488,118.203,14.488z
		 M117.713,9.168c0-0.149,0.051-0.275,0.154-0.378c0.102-0.103,0.223-0.154,0.363-0.154c0.148,0,0.275,0.051,0.377,0.154
		c0.104,0.103,0.154,0.229,0.154,0.378s-0.051,0.275-0.154,0.378c-0.102,0.103-0.229,0.154-0.377,0.154
		c-0.141,0-0.262-0.051-0.363-0.154C117.764,9.444,117.713,9.318,117.713,9.168z"/>
	<path fill="#FFFFFF" d="M122.193,10.694c0.307,0,0.592,0.084,0.854,0.252c0.064,0.047,0.102,0.038,0.111-0.028
		c0.027-0.149,0.145-0.224,0.35-0.224c-0.018,0,0.043,0,0.182,0h0.016c0.148,0,0.209,0,0.182,0c0.232,0.009,0.35,0.112,0.35,0.308
		v4.047c0,0.42-0.154,0.824-0.463,1.211c-0.307,0.387-0.676,0.627-1.105,0.721c-0.205,0.047-0.307-0.014-0.307-0.182
		c0-0.057,0.035-0.104,0.109-0.141c0.459-0.215,0.688-0.551,0.688-1.008v-1.357c-0.01-0.066-0.07-0.061-0.182,0.014
		c-0.287,0.195-0.617,0.293-0.988,0.293c-0.512,0-0.932-0.174-1.262-0.525s-0.494-0.781-0.494-1.287c0-0.617,0.18-1.121,0.539-1.51
		S121.604,10.694,122.193,10.694z M122.129,11.045c-0.428,0-0.785,0.164-1.072,0.492c-0.289,0.328-0.432,0.713-0.432,1.152
		c0,0.432,0.129,0.795,0.389,1.09s0.613,0.443,1.059,0.443c0.482,0,0.844-0.16,1.086-0.479v-2.18
		C122.898,11.219,122.555,11.045,122.129,11.045z"/>
	<path fill="#FFFFFF" d="M129.627,11.885v2.295c0,0.15-0.063,0.244-0.186,0.281c-0.047,0.018-0.164,0.027-0.354,0.027
		c-0.199,0-0.316-0.01-0.355-0.027c-0.123-0.037-0.184-0.131-0.184-0.281v-2.729c0-0.205-0.064-0.336-0.193-0.393
		c-0.064-0.028-0.197-0.043-0.398-0.043c-0.203,0-0.428,0.09-0.674,0.268c-0.248,0.176-0.373,0.336-0.373,0.475v2.422
		c0,0.15-0.061,0.244-0.184,0.281c-0.047,0.018-0.166,0.027-0.355,0.027c-0.197,0-0.316-0.01-0.354-0.027
		c-0.123-0.037-0.186-0.131-0.186-0.281v-3.232c0-0.15,0.061-0.243,0.184-0.281c0.037-0.019,0.152-0.028,0.35-0.028
		c0.186,0,0.303,0.01,0.35,0.029c0.121,0.039,0.182,0.135,0.182,0.289c0,0.087,0.01,0.13,0.027,0.13c0.02,0,0.08-0.031,0.184-0.098
		c0.391-0.252,0.764-0.378,1.119-0.378c0.373,0,0.699,0.124,0.98,0.371C129.486,11.229,129.627,11.529,129.627,11.885z"/>
	<path fill="#FFFFFF" d="M135.002,10.834c0,0.103,0.029,0.131,0.084,0.084c0.244-0.196,0.551-0.294,0.926-0.294
		c0.578,0,1.033,0.17,1.363,0.51c0.332,0.342,0.498,0.773,0.498,1.295c0,0.523-0.154,0.986-0.463,1.387
		c-0.346,0.447-0.783,0.672-1.314,0.672c-0.338,0-0.631-0.061-0.883-0.182c-0.141-0.074-0.211-0.014-0.211,0.182v2.072
		c0,0.148-0.061,0.242-0.182,0.279c-0.047,0.02-0.162,0.029-0.35,0.029c-0.195,0-0.313-0.01-0.35-0.029
		c-0.121-0.037-0.182-0.131-0.182-0.279v-5.572c0-0.159,0.061-0.257,0.182-0.294c0.037-0.009,0.154-0.014,0.35-0.014
		C134.826,10.68,135.002,10.731,135.002,10.834z M136.066,14.166c0.393,0,0.727-0.174,1.002-0.525
		c0.275-0.35,0.412-0.758,0.412-1.225c0-0.391-0.121-0.727-0.363-1.008c-0.271-0.299-0.621-0.448-1.051-0.448
		c-0.551,0-0.904,0.196-1.064,0.588v2.086C135.189,13.99,135.545,14.166,136.066,14.166z"/>
	<path fill="#FFFFFF" d="M139.23,12.619c0-0.549,0.199-1.016,0.596-1.402c0.396-0.385,0.875-0.579,1.436-0.579
		c0.559,0,1.037,0.193,1.434,0.579c0.396,0.387,0.596,0.854,0.596,1.402s-0.199,1.018-0.596,1.402
		c-0.396,0.387-0.875,0.578-1.434,0.578c-0.561,0-1.039-0.191-1.436-0.578C139.43,13.637,139.23,13.168,139.23,12.619z
		 M140.406,11.338c-0.064,0.314-0.098,0.742-0.098,1.281s0.033,0.967,0.098,1.283c0.141,0.232,0.42,0.348,0.84,0.348
		c0.496,0,0.895-0.152,1.197-0.459s0.455-0.693,0.455-1.158s-0.148-0.854-0.447-1.17s-0.701-0.475-1.205-0.475
		C140.826,10.988,140.547,11.105,140.406,11.338z"/>
	<path fill="#FFFFFF" d="M147.322,11.605c0-0.168-0.064-0.316-0.193-0.441c-0.129-0.127-0.297-0.19-0.5-0.19
		c-0.193,0-0.387,0.094-0.576,0.28c-0.189,0.188-0.283,0.355-0.283,0.504v2.422c0,0.15-0.063,0.244-0.186,0.281
		c-0.047,0.018-0.164,0.027-0.354,0.027c-0.199,0-0.318-0.01-0.355-0.027c-0.123-0.037-0.184-0.131-0.184-0.281v-3.232
		c0-0.15,0.061-0.243,0.182-0.281c0.037-0.019,0.154-0.028,0.35-0.028c0.188,0,0.303,0.01,0.35,0.029
		c0.121,0.039,0.184,0.137,0.184,0.293c0.316-0.233,0.619-0.35,0.91-0.35c0.336,0,0.615,0.117,0.84,0.35
		c0.186,0.196,0.27,0.397,0.252,0.602c-0.029,0.279-0.154,0.535-0.379,0.764s-0.477,0.324-0.756,0.287
		c-0.168-0.02-0.252-0.07-0.252-0.154c0-0.131,0.08-0.197,0.238-0.197c0.195,0,0.363-0.061,0.504-0.182
		S147.322,11.801,147.322,11.605z"/>
	<path fill="#FFFFFF" d="M149.297,10.33c0-0.14-0.084-0.21-0.252-0.21c-0.141,0-0.225,0-0.252,0
		c-0.066-0.019-0.098-0.079-0.098-0.182c0-0.103,0.031-0.164,0.098-0.182c0.027-0.009,0.119-0.014,0.273-0.014
		s0.23-0.061,0.23-0.182V7.404c0-0.224,0.184-0.42,0.553-0.588c0.096-0.047,0.186-0.07,0.27-0.07c0.17,0,0.256,0.098,0.256,0.294
		v2.52c0,0.112,0.074,0.168,0.221,0.168c0.027,0,0.08,0,0.158,0s0.15,0,0.213,0c0.203,0,0.305,0.07,0.305,0.21
		c0,0.121-0.102,0.182-0.305,0.182c-0.063,0-0.135,0-0.213,0s-0.131,0-0.158,0c-0.146,0-0.221,0.075-0.221,0.224v3.835
		c0,0.15-0.063,0.244-0.184,0.281c-0.049,0.018-0.166,0.027-0.355,0.027s-0.307-0.01-0.355-0.027
		c-0.123-0.037-0.184-0.131-0.184-0.281V10.33z"/>
	<path fill="#FFFFFF" d="M153.805,6.191v3.356c0,0.111,0.074,0.167,0.221,0.167c0.027,0,0.086,0,0.172,0c0.088,0,0.164,0,0.229,0
		c0.211,0,0.316,0.073,0.316,0.217c0,0.126-0.105,0.188-0.316,0.188c-0.064,0-0.141,0-0.229,0c-0.086,0-0.145,0-0.172,0
		c-0.146,0-0.221,0.075-0.221,0.224v3.835c0,0.15-0.061,0.244-0.184,0.281c-0.047,0.018-0.166,0.027-0.355,0.027
		s-0.307-0.01-0.354-0.027c-0.123-0.037-0.186-0.131-0.186-0.281v-3.85c0-0.14-0.084-0.21-0.252-0.21c-0.141,0-0.225,0-0.252,0
		c-0.064-0.019-0.098-0.079-0.098-0.182c0-0.102,0.033-0.163,0.098-0.181c0.027-0.009,0.119-0.014,0.273-0.014s0.23-0.06,0.23-0.181
		V7.16c0-0.577,0.141-1.094,0.42-1.55c0.318-0.53,0.738-0.795,1.26-0.795c0.271,0,0.48,0.073,0.631,0.218
		c0.057,0.055,0.084,0.109,0.084,0.164c0,0.1-0.057,0.15-0.166,0.15c-0.057,0-0.111-0.011-0.166-0.034
		c-0.148-0.061-0.273-0.092-0.375-0.092C154.008,5.22,153.805,5.544,153.805,6.191z"/>
	<path fill="#FFFFFF" d="M155.457,12.619c0-0.549,0.199-1.016,0.596-1.402c0.396-0.385,0.875-0.579,1.436-0.579
		c0.559,0,1.037,0.193,1.434,0.579c0.396,0.387,0.596,0.854,0.596,1.402s-0.199,1.018-0.596,1.402
		c-0.396,0.387-0.875,0.578-1.434,0.578c-0.561,0-1.039-0.191-1.436-0.578C155.656,13.637,155.457,13.168,155.457,12.619z
		 M156.633,11.338c-0.064,0.314-0.098,0.742-0.098,1.281s0.033,0.967,0.098,1.283c0.141,0.232,0.42,0.348,0.84,0.348
		c0.496,0,0.895-0.152,1.197-0.459s0.455-0.693,0.455-1.158s-0.148-0.854-0.447-1.17s-0.701-0.475-1.205-0.475
		C157.053,10.988,156.773,11.105,156.633,11.338z"/>
	<path fill="#FFFFFF" d="M161.441,14.488c-0.199,0-0.316-0.01-0.354-0.027c-0.123-0.037-0.186-0.131-0.186-0.279v-9.06
		c0-0.149,0.063-0.243,0.186-0.28c0.037-0.019,0.154-0.028,0.354-0.028c0.189,0,0.307,0.009,0.355,0.028
		c0.123,0.037,0.184,0.13,0.184,0.28v9.06c0,0.148-0.061,0.242-0.184,0.279C161.748,14.479,161.631,14.488,161.441,14.488z"/>
	<path fill="#FFFFFF" d="M163.982,14.488c-0.195,0-0.313-0.01-0.35-0.027c-0.121-0.037-0.182-0.131-0.182-0.281v-3.191
		c0-0.149,0.061-0.243,0.182-0.28c0.037-0.019,0.154-0.028,0.35-0.028c0.188,0,0.303,0.009,0.35,0.028
		c0.121,0.037,0.182,0.13,0.182,0.28v3.191c0,0.15-0.061,0.244-0.182,0.281C164.285,14.479,164.17,14.488,163.982,14.488z
		 M163.492,9.168c0-0.149,0.051-0.275,0.154-0.378c0.104-0.103,0.225-0.154,0.363-0.154c0.15,0,0.275,0.051,0.379,0.154
		c0.102,0.103,0.154,0.229,0.154,0.378s-0.053,0.275-0.154,0.378C164.285,9.649,164.16,9.7,164.01,9.7
		c-0.139,0-0.26-0.051-0.363-0.154S163.492,9.318,163.492,9.168z"/>
	<path fill="#FFFFFF" d="M165.984,12.619c0-0.549,0.199-1.016,0.596-1.402c0.396-0.385,0.875-0.579,1.436-0.579
		c0.559,0,1.037,0.193,1.434,0.579c0.396,0.387,0.596,0.854,0.596,1.402s-0.199,1.018-0.596,1.402
		c-0.396,0.387-0.875,0.578-1.434,0.578c-0.561,0-1.039-0.191-1.436-0.578C166.184,13.637,165.984,13.168,165.984,12.619z
		 M167.16,11.338c-0.064,0.314-0.098,0.742-0.098,1.281s0.033,0.967,0.098,1.283c0.141,0.232,0.42,0.348,0.84,0.348
		c0.496,0,0.895-0.152,1.197-0.459s0.455-0.693,0.455-1.158s-0.148-0.854-0.447-1.17s-0.701-0.475-1.205-0.475
		C167.58,10.988,167.301,11.105,167.16,11.338z"/>
</g>
</svg>
